<svg width="180" height="46" viewBox="0 0 180 46" fill="none" xmlns="http://www.w3.org/2000/svg">
<path d="M36.0566 38.3597C32.6716 42.0727 28.088 44.3554 23.0363 44.3554C12.6139 44.3554 4.16176 34.636 4.16176 22.6499C4.16176 10.6585 11.8834 0.992992 22.3058 0.992992C25.7165 0.992992 28.8185 2.04535 31.0306 4.34434C32.7076 6.09827 31.509 8.45662 32.4916 9.92992C34.0606 12.2991 37.034 11.754 38.0011 10.7448C39.6062 9.06105 38.8294 6.83761 37.5021 5.47765C33.6388 1.52187 28.1755 0 22.4035 0C9.63018 0 0 10.0864 0 22.596C0 35.1055 10.3607 45.2459 23.134 45.2459C28.8494 45.2459 34.0812 43.2167 38.1195 39.8492C38.6493 39.4067 38.9837 38.2788 38.3407 37.7499C37.4404 36.9944 36.427 37.9496 36.0566 38.3597Z" fill="white"/>
<path d="M23.8028 37.4152C23.8028 37.14 23.5867 37.0266 23.1289 37.0266C21.6525 36.9673 19.6719 36.5787 18.7408 35.0299C17.1666 32.4179 18.6019 30.7665 18.1132 28.8884C17.6245 27.005 15.5101 25.9418 13.5707 27.237C11.2815 28.7643 12.9586 33.1734 15.9526 35.3806C17.1255 36.2441 19.1523 37.1777 21.4467 37.6311C22.1412 37.766 22.7328 37.8037 23.2318 37.7876C23.6588 37.793 23.8028 37.6634 23.8028 37.4152Z" fill="white"/>
<path d="M34.2355 22.1264C31.4267 19.3201 25.2535 17.5824 21.1895 16.2979C18.2212 15.278 16.9145 13.4701 16.9248 11.3114C16.9403 7.96544 19.5536 7.10737 20.9889 6.70801C21.5753 6.54071 21.493 6.22231 21.4107 6.06041C21.3027 5.83375 21.0763 5.72042 20.639 5.83375C18.9363 6.29786 17.6296 6.91309 16.2972 7.96004C13.0666 10.5073 11.6056 18.7211 20.4281 21.495C20.7676 21.6083 26.6167 23.7292 28.2115 24.3174C31.1798 25.4184 33.86 26.9456 34.1532 30.8205C34.3744 33.7724 32.1829 35.3591 30.6602 36.0822C30.3567 36.2387 30.367 36.4384 30.475 36.5895C30.583 36.7514 30.8505 36.8324 31.2621 36.6327C32.2395 36.147 33.469 35.3321 34.7602 33.9343C37.641 30.8312 37.8159 25.699 34.2355 22.1264Z" fill="white"/>
<path d="M103.056 38.7214L103.838 40.907L106.061 41.0149L104.327 42.4667L104.913 44.7117L103.056 43.4381L101.199 44.7117L101.786 42.4667L100.047 41.0149L102.269 40.907L103.056 38.7214Z" fill="white"/>
<path d="M91.533 38.7214L92.3201 40.907L94.5424 41.0149L92.8036 42.4667L93.3952 44.7117L91.533 43.4381L89.6759 44.7117L90.2675 42.4667L88.5287 41.0149L90.7511 40.907L91.533 38.7214Z" fill="white"/>
<path d="M79.9017 38.7214L80.6888 40.907L82.9111 41.0149L81.1723 42.4667L81.7588 44.7117L79.9017 43.4381L78.0497 44.7117L78.631 42.4667L76.8974 41.0149L79.1198 40.907L79.9017 38.7214Z" fill="white"/>
<path d="M151.382 38.7214L152.159 40.907L154.376 41.0149L152.648 42.4667L153.234 44.7117L151.382 43.4381L149.52 44.7117L150.111 42.4667L148.373 41.0149L150.59 40.907L151.382 38.7214Z" fill="white"/>
<path d="M139.715 38.7214L140.497 40.907L142.714 41.0149L140.98 42.4667L141.567 44.7117L139.715 43.4381L137.858 44.7117L138.444 42.4667L136.71 41.0149L138.928 40.907L139.715 38.7214Z" fill="white"/>
<path d="M128.119 38.7214L128.907 40.907L131.129 41.0149L129.395 42.4667L129.977 44.7117L128.119 43.4381L126.267 44.7117L126.854 42.4667L125.12 41.0149L127.338 40.907L128.119 38.7214Z" fill="white"/>
<path d="M115.403 36.8108L116.442 39.7034L119.384 39.8491L117.08 41.7812L117.862 44.7601L115.403 43.0602L112.939 44.7601L113.715 41.7812L111.421 39.8491L114.353 39.7034L115.403 36.8108Z" fill="white"/>
<path d="M123.587 26.9456C123.335 27.3449 123.073 27.6741 122.795 27.9332C122.481 28.2192 122.147 28.3595 121.782 28.3595C121.488 28.3595 121.231 28.2894 121.046 28.1329C120.845 27.9872 120.691 27.7119 120.573 27.3234C120.46 26.9456 120.382 26.4059 120.357 25.7313C120.316 25.0567 120.305 24.1933 120.305 23.1463V21.441C120.305 20.7772 120.31 20.1458 120.331 19.5359C120.346 18.9315 120.362 18.3864 120.377 17.9169C120.393 17.442 120.418 17.1236 120.449 16.9509C120.521 16.0011 120.058 15.7097 119.662 15.8824C119.297 16.082 118.896 16.3897 118.453 16.789C118.006 17.1992 117.769 17.728 117.738 18.3648C117.666 19.6169 117.471 20.8959 117.147 22.2235C117.013 22.6336 116.802 23.2003 116.524 23.9504C116.246 24.6952 115.912 25.4237 115.516 26.1577C115.12 26.8808 114.693 27.5068 114.23 28.0357C113.767 28.5592 113.319 28.8236 112.892 28.8236C112.203 28.8236 111.755 28.4027 111.555 27.55C111.359 26.7081 111.256 25.2025 111.256 23.0384V21.3546C111.256 20.7124 111.267 20.0972 111.282 19.482C111.298 18.8721 111.313 18.3433 111.334 17.8845C111.349 17.4258 111.37 17.1182 111.406 16.9455C111.472 16.1522 111.009 15.7043 110.618 15.877C110.253 16.0766 109.842 16.3843 109.374 16.7836C108.916 17.1938 108.684 17.7226 108.684 18.3594V23.8425C108.684 25.1269 108.751 26.1955 108.875 27.0697C108.653 27.4205 108.427 27.7173 108.18 27.9548C107.871 28.2408 107.527 28.3811 107.146 28.3811C106.853 28.3811 106.616 28.3056 106.421 28.1545C106.23 28.0087 106.081 27.7335 105.963 27.3503C105.855 26.9564 105.783 26.4329 105.752 25.7583C105.716 25.0837 105.706 24.2257 105.706 23.1787C105.706 22.8765 105.711 22.4555 105.731 21.9159C105.742 21.3762 105.767 20.8095 105.803 20.2267C105.834 19.6385 105.886 19.0556 105.942 18.4836C106.122 16.7998 105.016 16.5677 104.533 16.6973C104.126 16.8052 103.416 17.0373 102.892 16.5623C102.362 16.0982 101.539 15.8608 100.412 15.8608C99.7331 15.8608 99.0231 16.0065 98.2721 16.2871C97.521 16.5731 96.8214 17.0534 96.2041 17.728C95.5713 18.3972 95.0569 19.2985 94.6608 20.4318C94.347 21.3006 94.1618 22.353 94.0897 23.5727C93.8788 24.0692 93.6268 24.5926 93.3284 25.1377C92.9683 25.7799 92.5722 26.3789 92.1195 26.9456C91.6668 27.5015 91.1781 27.9602 90.6482 28.3379C90.1132 28.7049 89.5576 28.8938 88.9814 28.8938C88.4979 28.8938 88.04 28.8075 87.6079 28.6402C87.1655 28.4729 86.7899 28.1976 86.471 27.8091C86.152 27.4205 85.8948 26.9024 85.6993 26.2602C85.509 25.618 85.4061 24.8247 85.4061 23.8803C85.4061 22.5203 85.5141 21.3924 85.7251 20.4803C85.9308 19.5683 86.2086 18.829 86.5482 18.2731C86.8877 17.7172 87.6645 16.7296 88.7962 16.7296C90.0514 16.7296 91.1009 17.1884 91.1009 18.095C91.1009 18.3001 90.5865 20.8419 92.5053 20.5343C93.4416 20.3886 93.4879 19.1366 93.2821 18.5483C92.4333 16.1576 89.8148 15.8176 88.6933 15.8176C88.0812 15.8176 87.2889 15.9417 86.579 16.1954C85.8743 16.449 85.2209 16.8808 84.619 17.4906C84.0223 18.095 83.5284 18.9261 83.1272 19.9785C82.7259 21.02 82.5202 22.3584 82.5202 23.9774C82.5202 25.1971 82.6796 26.2062 83.0089 27.0211C83.0552 27.1453 83.1066 27.2586 83.1632 27.3719C83.0037 27.5986 82.834 27.7929 82.6642 27.9602C82.3555 28.2462 82.0109 28.3865 81.625 28.3865C81.337 28.3865 81.1003 28.311 80.9048 28.1598C80.7145 28.0141 80.5653 27.7389 80.447 27.3557C80.3338 26.9618 80.2669 26.4383 80.2361 25.7637C80.1949 25.0891 80.1846 24.2311 80.1846 23.1841C80.1846 22.8819 80.1898 22.4609 80.2052 21.9213C80.2258 21.3816 80.2464 20.8149 80.2824 20.2321C80.3132 19.6439 80.3647 19.061 80.4213 18.489C80.5962 16.8052 79.4953 16.5731 79.0117 16.7027C78.6002 16.8106 77.8954 17.0427 77.3655 16.5677C76.8357 16.1036 76.0074 15.8662 74.886 15.8662C74.2172 15.8662 73.5022 16.0119 72.7459 16.2925C71.9897 16.5785 71.3055 17.0588 70.6779 17.7334C70.0555 18.4026 69.541 19.3039 69.1398 20.4372C68.7385 21.5651 68.5379 22.9898 68.5379 24.7006C68.5379 26.557 68.8774 27.9602 69.5513 28.9154C70.2304 29.8706 71.0277 30.3563 71.9589 30.3563C72.7562 30.3563 73.4816 30.0703 74.1195 29.4928C74.7625 28.9262 75.3232 28.2462 75.8017 27.4529C76.2852 26.6596 76.6762 25.8717 76.9849 25.0783C77.2935 24.285 77.5199 23.6536 77.6793 23.1787C77.6793 25.4021 77.844 27.1507 78.1886 28.4297C78.523 29.7087 79.2741 30.3509 80.4213 30.3509C81.126 30.3509 81.7536 30.1135 82.2989 29.6385C82.7877 29.2176 83.2198 28.7157 83.5902 28.1491C83.7959 28.4567 84.0172 28.7319 84.2641 28.964C84.7785 29.4551 85.3753 29.8112 86.0492 30.0325C86.7334 30.2484 87.4073 30.3617 88.0812 30.3617C88.9866 30.3617 89.7994 30.1242 90.5196 29.6493C91.2501 29.1798 91.8777 28.6132 92.4075 27.9548C92.9374 27.291 93.3901 26.5948 93.7605 25.8501C93.884 25.6126 93.9869 25.3913 94.0897 25.1755C94.1463 26.7891 94.4756 28.0411 95.0877 28.91C95.7616 29.8652 96.5642 30.3509 97.4953 30.3509C98.2978 30.3509 99.018 30.0649 99.661 29.4874C100.299 28.9208 100.865 28.2408 101.343 27.4475C101.822 26.6542 102.218 25.8663 102.521 25.0729C102.82 24.2796 103.056 23.6482 103.216 23.1733C103.216 25.3967 103.38 27.1453 103.72 28.4243C104.054 29.7033 104.805 30.3455 105.953 30.3455C106.668 30.3455 107.285 30.1081 107.83 29.6331C108.319 29.2122 108.736 28.7265 109.111 28.1598C109.178 28.4189 109.255 28.6563 109.348 28.8614C109.77 29.8382 110.613 30.3239 111.869 30.3239C112.589 30.3239 113.263 30.0541 113.895 29.5144C114.523 28.9747 115.089 28.3271 115.598 27.5662C116.113 26.8053 116.545 26.012 116.915 25.2025C117.275 24.393 117.558 23.713 117.759 23.1679C117.759 25.5047 117.923 27.2802 118.273 28.4998C118.618 29.7195 119.384 30.3239 120.573 30.3239C121.293 30.3239 121.936 30.0865 122.497 29.6116C123.057 29.1367 123.541 28.57 123.958 27.917C124.462 27.0967 123.953 26.2872 123.587 26.9456ZM77.2421 21.5651C76.9746 22.6444 76.6196 23.7184 76.1823 24.7977C75.7502 25.877 75.2512 26.8161 74.6905 27.6202C74.1349 28.4297 73.5639 28.8398 72.9826 28.8398C72.6328 28.8398 72.2727 28.5214 71.928 27.9008C71.573 27.2802 71.3981 26.1793 71.3981 24.5926C71.3981 21.8673 71.7428 19.8651 72.4321 18.5861C73.1215 17.3017 73.9703 16.6649 74.9631 16.6649C75.8325 16.6649 76.4962 16.9455 76.9591 17.5014C77.4221 18.0572 77.6536 18.6023 77.6536 19.142C77.6536 19.6816 77.5147 20.4857 77.2421 21.5651ZM102.784 21.5651C102.511 22.6444 102.161 23.7184 101.724 24.7977C101.292 25.877 100.793 26.8161 100.232 27.6202C99.6713 28.4297 99.0952 28.8398 98.519 28.8398C98.1692 28.8398 97.8194 28.5214 97.4644 27.9008C97.1095 27.2802 96.9397 26.1793 96.9397 24.5926C96.9397 21.8673 97.2792 19.8651 97.9686 18.5861C98.6579 17.3017 99.5016 16.6649 100.494 16.6649C101.364 16.6649 102.027 16.9455 102.496 17.5014C102.959 18.0572 103.19 18.6023 103.19 19.142C103.195 19.6816 103.056 20.4857 102.784 21.5651Z" fill="white"/>
<path d="M135.399 19.8006C134.606 19.2015 133.691 18.7482 131.782 17.8578C130.306 17.1616 129.627 16.9511 129.02 16.5518C127.78 15.6883 127.204 14.7331 127.204 13.4702C127.204 11.2954 128.835 9.94081 131.227 9.94081C132.95 9.94081 134.344 10.6316 134.344 11.657L134.308 11.9862C134.226 12.3855 134.195 12.6176 134.185 12.6823C134.138 13.5188 134.792 14.1017 135.424 14.1017C136.155 14.1017 136.757 13.4055 136.757 12.5474C136.757 10.7287 134.221 9.03956 131.252 9.03956C127.867 9.03956 125.023 11.6084 125.023 14.814C125.023 16.4384 125.655 17.7444 127.091 18.6996C127.8 19.18 128.505 19.6333 130.295 20.4266C131.895 21.1497 132.549 21.5545 133.176 21.9808C134.596 22.9738 135.368 24.0532 135.368 25.6128C135.368 28.1277 133.557 29.6064 130.867 29.6064C129.411 29.6064 128.567 29.4822 127.996 28.527C127.893 28.3597 127.837 28.1654 127.837 27.9928V27.901C127.867 27.7985 127.867 27.7391 127.867 27.6744C127.888 27.6042 127.888 27.5718 127.924 27.4747L127.955 27.3452L127.991 26.9782C127.991 26.2496 127.384 25.5588 126.746 25.5588C126.046 25.5588 125.414 26.282 125.414 27.1077C125.414 28.9965 127.991 30.5508 131.072 30.5508C132.76 30.5508 134.071 30.0165 135.368 28.7969C136.7 27.5394 137.364 26.0176 137.364 24.269C137.369 22.4773 136.824 20.9609 135.399 19.8006Z" fill="white"/>
<path d="M179.63 15.8501C179.378 15.4939 179.069 15.3212 178.693 15.3212C178.009 15.3212 177.67 15.6936 177.67 16.433C177.67 16.7352 177.726 17.0158 177.834 17.2748C177.942 17.5285 178.055 17.7821 178.179 18.0304C178.308 18.284 178.421 18.5485 178.534 18.8129C178.642 19.0881 178.693 19.3742 178.693 19.6764C178.693 20.1513 178.606 20.7503 178.436 21.4735C178.261 22.202 178.04 22.9684 177.757 23.7779C177.484 24.5874 177.145 25.4023 176.759 26.2387C176.368 27.0644 175.977 27.7984 175.576 28.4406C175.478 28.4406 175.344 28.2139 175.18 27.7768C175.005 27.3451 174.82 26.773 174.614 26.0822C174.408 25.3861 174.202 24.6305 173.986 23.7994C173.765 22.9737 173.564 22.1588 173.384 21.3601C173.194 20.5722 173.05 19.8437 172.932 19.1907C172.433 16.2117 172.767 14.8409 170.761 16.5355C170.308 16.9187 169.948 17.7444 170.354 19.6764C170.437 20.1027 170.504 20.4157 170.632 20.8852C170.478 21.4627 170.252 22.1588 169.958 22.9899C169.66 23.8156 169.362 24.6197 169.068 25.3969C168.775 26.174 168.513 26.8324 168.276 27.3721C168.045 27.9117 167.88 28.1816 167.787 28.1816C167.721 28.1816 167.607 27.9711 167.438 27.5448C167.288 27.1778 165.4 19.5199 165.37 19.3796C164.747 16.3844 165.143 14.8625 163.137 16.5679C162.705 16.9348 162.37 17.7012 162.669 19.4173C162.679 19.5037 162.7 19.59 162.71 19.671C162.725 19.7141 162.741 19.8059 162.777 19.9354C162.823 20.1675 162.869 20.3887 162.926 20.6316C163.147 21.5976 163.518 23.1518 163.955 24.7708C164.444 26.5626 165.123 28.6457 165.277 29.0882C166.085 31.3926 167.659 30.1567 168.163 29.1907C168.41 28.7158 168.677 28.1654 168.95 27.5394C169.238 26.9187 169.506 26.2711 169.768 25.6181C170.035 24.9597 170.277 24.3175 170.493 23.6969C170.715 23.0709 170.895 22.5204 171.054 22.0455C171.244 22.7525 171.435 23.5026 171.635 24.2744C171.841 25.0515 172.037 25.78 172.217 26.4546C172.402 27.1292 172.572 27.712 172.711 28.2031C172.844 28.6942 172.947 28.9857 173.014 29.0882C173.23 29.6279 173.528 30.0056 173.899 30.2323C174.274 30.4536 175.314 30.7828 176.188 29.1907C176.636 28.365 177.109 27.4746 177.556 26.4816C178.009 25.4832 178.416 24.4686 178.765 23.4109C179.125 22.3693 179.424 21.3386 179.655 20.324C179.892 19.3094 180 18.3812 180 17.5339C180 16.7729 179.877 16.2063 179.63 15.8501Z" fill="white"/>
<path d="M160.884 17.998C160.477 17.3612 159.968 16.8378 159.361 16.4384C158.744 16.0229 158.023 15.8232 157.185 15.8232C156.418 15.8232 155.688 15.9635 154.983 16.2603C154.289 16.5463 153.671 16.9943 153.136 17.5987C152.606 18.2085 152.174 18.9802 151.84 19.9031C151.511 20.8367 151.346 21.9268 151.346 23.1789C151.346 24.3877 151.495 25.4563 151.789 26.3683C151.897 26.6867 152.025 26.9889 152.159 27.275C151.984 27.534 151.809 27.7715 151.614 27.9496C151.315 28.2464 150.981 28.3813 150.61 28.3813C150.333 28.3813 150.111 28.3057 149.962 28.1546C149.803 28.0035 149.684 27.7067 149.607 27.2696C149.53 26.8324 149.479 26.2118 149.463 25.4131C149.443 24.6198 149.438 23.5674 149.438 22.2506C149.438 19.9193 149.432 18.4838 149.077 17.507C148.656 16.3521 147.817 15.8178 146.644 15.8178C145.893 15.8178 145.204 16.0876 144.566 16.6273C143.928 17.167 143.362 17.8254 142.889 18.6025C142.405 19.3742 141.994 20.1783 141.649 21.0094C141.304 21.8297 141.057 22.5205 140.903 23.0602C140.903 23.0602 140.908 20.4697 140.908 16.9349C140.908 13.8318 140.888 12.9198 140.929 10.4966C140.944 9.24461 139.905 9.81126 139.283 10.4427C138.64 11.0903 138.449 11.3007 138.449 12.1588C138.449 13.0223 138.485 27.5394 138.465 28.0305C138.449 28.527 138.357 29.0235 138.326 29.1908C138.264 29.4606 138.202 29.6765 138.146 29.8222C138.079 29.9733 138.048 30.1028 138.048 30.2054C138.048 30.3727 138.125 30.4536 138.28 30.4536C138.532 30.4536 138.815 30.3727 139.118 30.2054C139.468 30.0057 139.838 29.6927 140.265 29.2933C140.682 28.8886 140.893 28.3597 140.893 27.7175C140.893 27.0105 140.955 26.3036 141.078 25.5912C141.202 24.8842 141.356 24.1881 141.546 23.5135C141.675 23.0709 141.86 22.5097 142.127 21.8189C142.395 21.1281 142.699 20.4482 143.064 19.7628C143.419 19.0936 143.81 18.5053 144.226 18.0196C144.648 17.5285 145.07 17.2857 145.507 17.2857C145.821 17.2857 146.073 17.372 146.279 17.5339C146.48 17.7066 146.665 17.9819 146.742 18.3974C146.871 19.0234 146.829 19.3364 146.85 20.0488C146.871 21.0472 146.814 21.657 146.814 22.7417C146.814 25.343 146.948 27.2588 147.21 28.4892C147.478 29.7197 148.357 30.3511 149.474 30.3511C150.158 30.3511 150.76 30.1136 151.269 29.6387C151.758 29.1854 152.19 28.6565 152.565 28.0305C152.699 28.241 152.843 28.4407 152.997 28.6134C153.512 29.2016 154.103 29.6441 154.772 29.9301C155.436 30.2216 156.151 30.3673 156.923 30.3673C158.085 30.3673 159.171 30.0003 159.994 29.0937C161.825 27.0753 162.005 24.2798 162.046 23.5674C162.062 23.2328 162.067 22.8821 162.067 22.4989C162.067 21.7272 161.969 20.9393 161.769 20.1459C161.578 19.3634 161.28 18.6403 160.884 17.998ZM159.628 28.2086C159.088 28.948 158.245 29.1962 157.386 29.1962C156.588 29.1962 155.6 28.7105 155.004 27.7499C154.407 26.7839 154.103 25.208 154.103 23.0116C154.103 20.8529 154.407 19.2717 155.004 18.2733C155.606 17.2803 156.588 16.7784 157.386 16.7784C158.018 16.7784 158.553 16.9403 159.001 17.2533C159.459 17.5825 159.829 17.9927 160.133 18.4945C160.431 19.0018 160.662 19.5523 160.837 20.1459C160.997 20.745 161.841 25.1918 159.628 28.2086Z" fill="white"/>
<path d="M61.485 9.78432C62.9871 9.8221 63.944 10.1783 64.6951 11.0795C65.2661 11.7703 64.8442 13.0223 65.3227 13.7023C66.0943 14.814 67.3547 14.5928 67.7354 14.0531C68.4761 13.2274 68.116 12.2236 67.5296 11.5706C65.832 9.68179 63.4193 8.95323 60.8728 8.95323C55.2398 8.95323 50.8054 13.7779 50.8517 19.752C50.9083 27.1185 55.641 30.7883 61.2689 30.7883C63.7897 30.7883 66.012 29.601 67.8022 27.9982C68.0697 27.7553 68.2704 27.1779 67.864 26.8163C67.3392 26.3468 66.8351 26.8811 66.6756 27.0807C65.1786 28.8509 63.4296 29.7845 61.2021 29.7845C56.6082 29.7845 54.1646 25.5805 54.1646 19.8492C54.1698 14.1287 57.3489 9.67099 61.485 9.78432Z" fill="white"/>
</svg>
